<svg xmlns="http://www.w3.org/2000/svg" xmlns:xlink="http://www.w3.org/1999/xlink" width="1920" zoomAndPan="magnify" viewBox="0 0 1440 809.999993" height="1080" preserveAspectRatio="xMidYMid meet" version="1.0"><defs><clipPath id="5a2c2e1b81"><path d="M 434.25 267.75 L 1005.75 267.75 L 1005.75 542.25 L 434.25 542.25 Z M 434.25 267.75 " clip-rule="nonzero"/></clipPath></defs><rect x="-144" width="1728" fill="#ffffff" y="-80.999999" height="971.999992" fill-opacity="1"/><g clip-path="url(#5a2c2e1b81)"><path fill="#04b88f" d="M 871.300781 284.507812 L 865.953125 275.621094 L 830.210938 276.644531 L 801.121094 379.339844 C 791.625 379.078125 782.117188 378.8125 772.617188 378.550781 L 753.898438 348.484375 L 721.257812 348.484375 L 696.453125 307.210938 L 654.917969 307.210938 L 652.007812 312.160156 L 695.71875 312.160156 L 720.710938 352.074219 L 754.136719 352.074219 L 773.929688 381.636719 L 800.722656 383.113281 L 830.863281 282.355469 C 843.433594 281.632812 856.003906 280.90625 868.574219 280.183594 Z M 934.554688 312.761719 L 932.144531 308.773438 L 886.53125 308.773438 L 889.03125 312.761719 Z M 876.449219 295.601562 L 867.761719 281.757812 L 832.039062 283.820312 L 801.859375 384.699219 L 773.09375 383.125 L 753.324219 353.609375 L 719.871094 353.609375 L 694.878906 313.695312 L 652.707031 313.695312 L 649.730469 318.644531 L 694.128906 318.644531 L 719.308594 357.195312 L 753.535156 357.195312 L 774.394531 386.222656 L 801.496094 388.4375 L 832.710938 289.542969 L 870.363281 286.28125 Z M 936.929688 318.296875 L 934.394531 314.308594 L 888.65625 314.308594 L 891.269531 318.296875 Z M 881.710938 306.460938 L 869.574219 287.894531 L 833.863281 290.980469 L 802.585938 390.0625 C 792.914062 389.273438 783.226562 388.484375 773.554688 387.699219 L 752.738281 358.734375 L 718.460938 358.734375 L 693.28125 320.183594 L 650.457031 320.183594 L 647.421875 325.132812 L 692.507812 325.132812 L 717.859375 362.308594 L 752.886719 362.308594 L 774.804688 390.808594 L 802.222656 393.757812 L 834.511719 296.726562 C 847.046875 295.277344 859.578125 293.828125 872.101562 292.378906 Z M 939.328125 323.820312 L 936.679688 319.832031 L 890.804688 319.832031 L 893.519531 323.820312 Z M 887.144531 317.195312 L 871.375 294.039062 L 835.671875 298.164062 L 803.296875 395.445312 L 774.003906 392.296875 L 752.148438 363.867188 L 717.074219 363.867188 L 691.71875 326.691406 L 648.246094 326.691406 L 643.535156 334.203125 L 645.183594 331.640625 L 690.917969 331.640625 L 716.460938 367.457031 L 752.289062 367.457031 L 775.269531 395.433594 L 802.984375 399.132812 L 836.347656 303.960938 C 848.855469 302.152344 861.378906 300.339844 873.886719 298.539062 Z M 941.726562 329.355469 L 938.953125 325.367188 L 892.957031 325.367188 L 895.78125 329.355469 Z M 892.71875 327.691406 L 873.1875 300.164062 L 837.5 305.324219 L 804.035156 400.792969 C 794.1875 399.484375 784.328125 398.171875 774.480469 396.859375 L 751.574219 368.980469 L 715.6875 368.980469 L 690.144531 333.164062 L 646.035156 333.164062 L 638.023438 345.660156 L 642.972656 338.113281 L 689.332031 338.113281 L 715.0625 372.566406 L 751.6875 372.566406 L 775.730469 400.007812 L 803.757812 404.445312 L 838.199219 311.136719 C 850.695312 308.960938 863.191406 306.800781 875.6875 304.625 Z M 944.128906 334.878906 L 941.214844 330.890625 L 895.066406 330.890625 L 898.015625 334.878906 Z M 947.175781 341.25 L 943.488281 336.414062 L 897.242188 336.414062 L 874.972656 306.285156 L 839.296875 312.484375 L 804.734375 406.144531 L 774.90625 401.417969 L 750.960938 374.078125 L 714.261719 374.078125 L 688.546875 339.652344 L 643.785156 339.652344 L 632.3125 357.144531 L 640.746094 344.601562 L 687.71875 344.601562 L 713.636719 377.691406 L 751.0625 377.691406 L 776.167969 404.605469 L 804.496094 409.792969 L 839.996094 318.332031 C 852.46875 315.796875 864.953125 313.273438 877.421875 310.75 L 900.265625 340.425781 L 946.5 340.425781 Z M 953.148438 351.210938 L 945.765625 341.949219 L 899.515625 341.949219 L 876.785156 312.421875 L 841.132812 319.65625 L 805.46875 411.515625 C 795.4375 409.679688 785.414062 407.84375 775.378906 406.019531 L 750.386719 379.226562 L 712.875 379.226562 L 686.957031 346.136719 L 641.558594 346.136719 L 626.652344 368.328125 L 638.535156 351.085938 L 686.121094 351.085938 L 712.226562 382.800781 L 750.464844 382.800781 L 776.628906 409.179688 L 805.269531 415.101562 L 841.847656 325.507812 C 854.304688 322.605469 866.765625 319.71875 879.222656 316.832031 L 902.550781 345.9375 L 948.777344 345.9375 Z M 959.273438 360.945312 L 948.050781 347.488281 L 901.804688 347.488281 L 878.621094 318.558594 L 842.972656 326.832031 L 806.207031 416.878906 C 796.085938 414.777344 785.976562 412.691406 775.855469 410.589844 L 749.8125 384.335938 L 711.5 384.335938 L 685.394531 352.621094 L 639.335938 352.621094 L 621.152344 379.027344 L 636.3125 357.570312 C 652.382812 357.570312 668.4375 357.570312 684.507812 357.570312 L 710.789062 387.921875 L 749.824219 387.921875 L 777.054688 413.765625 L 806.007812 420.4375 L 843.660156 332.691406 C 856.09375 329.441406 868.539062 326.191406 880.972656 322.945312 L 904.777344 351.460938 L 951.011719 351.460938 Z M 965.457031 370.367188 L 950.3125 353.007812 L 904.050781 353.007812 L 880.410156 324.679688 L 844.769531 333.992188 L 806.921875 422.226562 C 796.710938 419.875 786.515625 417.515625 776.304688 415.164062 L 749.214844 389.449219 L 710.089844 389.449219 L 683.808594 359.09375 L 637.097656 359.09375 L 615.707031 389.375 L 634.085938 364.042969 L 682.898438 364.042969 L 709.363281 393.035156 L 749.199219 393.035156 L 777.492188 418.351562 L 806.757812 425.773438 L 845.46875 339.890625 C 857.890625 336.277344 870.3125 332.679688 882.722656 329.066406 L 907.015625 356.996094 L 953.25 356.996094 Z M 971.832031 379.640625 L 952.585938 358.546875 L 906.328125 358.546875 L 882.222656 330.816406 L 846.59375 341.164062 L 807.644531 427.585938 C 797.359375 424.976562 787.0625 422.363281 776.78125 419.75 L 748.652344 394.585938 L 708.714844 394.585938 L 682.246094 365.59375 L 634.898438 365.59375 L 610.320312 399.457031 L 631.898438 370.542969 L 681.320312 370.542969 L 707.976562 398.171875 L 748.625 398.171875 L 777.980469 422.949219 L 807.546875 431.121094 L 847.332031 347.085938 C 859.730469 343.125 872.136719 339.152344 884.535156 335.191406 L 909.300781 362.53125 L 955.535156 362.53125 Z M 884.371094 303.238281 L 886.769531 307.222656 L 932.15625 307.222656 L 929.855469 303.238281 Z M 654.292969 305.675781 L 697.316406 305.675781 L 722.121094 346.949219 L 754.75 346.949219 L 773.480469 377.039062 L 799.960938 377.777344 L 829.027344 275.160156 C 841.609375 274.796875 854.191406 274.433594 866.765625 274.070312 L 864.128906 269.5 L 828.375 269.5 L 800.386719 373.992188 L 772.144531 373.992188 L 754.472656 343.375 L 722.660156 343.375 L 698.042969 300.726562 L 657.15625 300.726562 Z M 446.445312 542.5 L 434.3125 542.5 L 434.3125 541.089844 Z M 481.683594 542.5 L 469.402344 542.5 L 434.3125 538.078125 L 434.3125 536.527344 C 450.109375 538.527344 465.902344 540.511719 481.683594 542.5 Z M 495.667969 542.5 L 492.945312 542.5 L 491.03125 541.1875 L 434.3125 533.476562 L 434.3125 531.929688 C 453.40625 534.527344 472.5 537.125 491.605469 539.714844 Z M 503.328125 542.5 L 500.554688 542.5 L 492.894531 537.390625 L 434.3125 528.816406 L 434.3125 527.253906 C 454.03125 530.140625 473.738281 533.039062 493.457031 535.914062 Z M 511.324219 542.5 L 508.5 542.5 L 494.757812 533.589844 L 434.3125 524.105469 L 434.3125 522.554688 C 454.644531 525.753906 474.976562 528.941406 495.316406 532.128906 Z M 519.6875 542.5 L 516.800781 542.5 L 496.617188 529.792969 L 434.3125 519.332031 L 434.3125 517.769531 C 455.269531 521.292969 476.210938 524.804688 497.167969 528.316406 Z M 528.433594 542.5 L 525.484375 542.5 L 498.480469 525.980469 L 434.324219 514.496094 L 434.324219 512.960938 L 434.425781 512.960938 C 455.96875 516.820312 477.5 520.683594 499.042969 524.53125 Z M 737.105469 542.5 L 665.402344 542.5 L 668.152344 541.589844 L 731.554688 541.589844 Z M 766.296875 542.5 L 757.460938 542.5 L 732.042969 538 L 669.777344 538 L 654.367188 542.5 L 648.882812 542.5 L 669.574219 536.464844 C 690.445312 536.488281 711.3125 536.464844 732.179688 536.464844 C 743.539062 538.476562 754.925781 540.488281 766.296875 542.5 Z M 790.1875 542.5 L 783.378906 542.5 L 732.65625 532.878906 L 671.175781 532.878906 L 639.710938 540.738281 L 574.566406 540.738281 L 565.382812 542.488281 L 557.160156 542.488281 L 574.441406 539.1875 L 639.535156 539.1875 L 671 531.328125 L 732.78125 531.328125 C 751.75 534.925781 770.730469 538.527344 789.699219 542.125 Z M 795.984375 542.5 L 793.386719 542.5 L 788.589844 538.988281 L 733.242188 527.765625 L 672.550781 527.765625 L 641.273438 534.265625 L 576.792969 534.265625 L 542.742188 542.5 L 534.582031 542.5 L 500.339844 522.179688 L 437.023438 510.121094 L 434.324219 510.121094 L 434.324219 508.585938 L 437.148438 508.585938 C 458.40625 512.632812 479.648438 516.695312 500.902344 520.730469 L 537.207031 542.261719 L 576.644531 532.714844 L 641.148438 532.714844 L 672.425781 526.21875 L 733.378906 526.21875 C 752 529.992188 770.617188 533.777344 789.25 537.550781 Z M 802.058594 542.5 L 799.421875 542.5 L 788.136719 534.402344 L 733.816406 522.644531 L 673.925781 522.644531 L 642.835938 527.78125 L 579.03125 527.78125 L 538.929688 539.511719 L 502.191406 518.382812 L 439.722656 505.75 L 434.3125 505.75 L 434.3125 504.210938 L 439.847656 504.210938 C 460.804688 508.484375 481.785156 512.710938 502.753906 516.933594 L 539.140625 537.851562 L 578.855469 526.230469 L 642.757812 526.230469 L 673.847656 521.09375 L 733.992188 521.09375 C 752.25 525.054688 770.519531 529.003906 788.789062 532.964844 Z M 808.417969 542.5 L 805.746094 542.5 L 787.6875 529.816406 L 734.429688 517.519531 L 675.335938 517.519531 L 644.421875 521.292969 L 581.277344 521.292969 L 540.917969 535.128906 L 504.054688 514.597656 L 442.410156 501.386719 L 434.300781 501.386719 L 434.300781 499.851562 L 442.558594 499.851562 C 463.242188 504.289062 483.910156 508.734375 504.589844 513.148438 L 541.066406 533.464844 L 581.027344 519.769531 L 644.332031 519.769531 L 675.25 515.996094 L 734.582031 515.996094 C 752.488281 520.132812 770.40625 524.269531 788.324219 528.40625 Z M 815.082031 542.5 L 812.367188 542.5 L 787.238281 525.230469 L 735.03125 512.398438 L 676.722656 512.398438 L 646.035156 514.796875 L 583.515625 514.796875 L 542.902344 530.730469 L 505.902344 510.785156 L 445.121094 497.003906 L 434.300781 497.003906 L 434.300781 495.464844 L 445.273438 495.464844 C 465.652344 500.113281 486.058594 504.738281 506.453125 509.347656 L 543.003906 529.054688 L 583.226562 513.273438 L 645.945312 513.273438 L 676.636719 510.871094 L 735.191406 510.871094 C 752.75 515.183594 770.308594 519.519531 787.875 523.820312 Z M 822.078125 542.5 L 819.316406 542.5 L 786.777344 520.644531 L 735.617188 507.273438 L 678.097656 507.273438 L 647.582031 508.3125 L 585.753906 508.3125 L 544.890625 526.332031 L 507.75 506.972656 L 447.832031 492.617188 L 434.3125 492.617188 L 434.3125 491.078125 L 447.996094 491.078125 C 468.101562 495.902344 488.21875 500.726562 508.328125 505.535156 L 544.953125 524.628906 L 585.441406 506.773438 L 647.558594 506.773438 L 678.074219 505.738281 L 735.792969 505.738281 C 753 510.234375 770.207031 514.734375 787.414062 519.21875 Z M 970.304688 542.5 L 962.109375 542.5 L 943.601562 538.964844 L 940.914062 542.5 L 938.980469 542.5 L 942.941406 537.265625 Z M 1005.445312 539.511719 L 1005.445312 541.050781 L 981.179688 541.050781 L 941.804688 532.839844 L 934.304688 542.5 L 932.355469 542.5 L 941.164062 531.140625 L 981.304688 539.511719 Z M 1005.445312 533.976562 L 1005.445312 535.515625 L 978.917969 535.515625 L 940.015625 526.71875 L 927.46875 542.488281 L 925.507812 542.488281 L 939.414062 525.003906 L 979.078125 533.976562 Z M 1005.445312 528.441406 L 1005.445312 529.980469 L 976.640625 529.980469 L 938.203125 520.59375 L 920.359375 542.488281 L 918.371094 542.488281 L 937.628906 518.871094 L 976.816406 528.429688 L 1005.445312 528.429688 Z M 1005.445312 522.917969 L 1005.445312 524.457031 L 974.378906 524.457031 L 936.40625 514.484375 L 912.972656 542.5 L 910.960938 542.5 L 935.84375 512.757812 L 974.554688 522.917969 Z M 1005.445312 517.382812 L 1005.445312 518.921875 L 972.105469 518.921875 L 934.605469 508.359375 L 905.300781 542.488281 L 903.277344 542.488281 L 934.082031 506.613281 L 972.316406 517.371094 L 1005.445312 517.371094 Z M 1005.445312 511.859375 L 1005.445312 513.398438 L 969.84375 513.398438 L 932.804688 502.25 L 897.542969 542.226562 L 897.003906 542.5 L 893.582031 542.5 L 896.59375 540.988281 L 932.304688 500.5 L 970.054688 511.859375 Z M 1005.445312 506.324219 L 1005.445312 507.859375 L 967.582031 507.859375 L 931.007812 496.128906 L 895.730469 535.027344 C 891.105469 537.515625 886.496094 540 881.871094 542.488281 L 878.636719 542.488281 L 894.78125 533.789062 L 930.542969 494.351562 L 967.820312 506.3125 L 1005.445312 506.3125 Z M 1005.445312 500.800781 L 1005.445312 502.335938 L 965.308594 502.335938 L 929.195312 490.015625 L 893.90625 527.84375 L 868.402344 542.488281 L 865.3125 542.488281 L 892.917969 526.628906 L 928.730469 488.230469 L 965.53125 500.777344 L 1005.445312 500.777344 Z M 1005.445312 495.265625 L 1005.445312 496.800781 L 963.046875 496.800781 L 927.394531 483.894531 L 892.082031 520.65625 C 880.195312 527.941406 868.300781 535.214844 856.40625 542.488281 L 853.441406 542.488281 L 891.105469 519.445312 L 926.96875 482.105469 L 963.296875 495.253906 L 1005.445312 495.253906 Z M 1005.445312 489.730469 L 1005.445312 491.265625 L 960.773438 491.265625 L 925.59375 477.769531 L 890.269531 513.460938 C 875.386719 523.132812 860.515625 532.804688 845.632812 542.476562 L 842.820312 542.476562 L 889.292969 512.257812 L 925.21875 475.972656 L 961.058594 489.714844 L 1005.445312 489.714844 Z M 1005.445312 484.34375 L 1005.445312 485.980469 L 1004.820312 485.753906 L 958.511719 485.753906 L 923.796875 471.671875 L 888.457031 506.300781 C 870.976562 518.371094 853.480469 530.441406 835.984375 542.5 L 833.273438 542.5 L 887.46875 505.113281 L 923.445312 469.871094 L 958.808594 484.21875 L 1005.09375 484.21875 Z M 1005.445312 479.683594 L 1005.445312 481.332031 L 1002.546875 480.21875 L 956.234375 480.21875 L 921.984375 465.550781 L 886.621094 499.113281 C 866.839844 513.570312 847.058594 528.042969 827.289062 542.5 L 824.675781 542.5 L 885.632812 497.925781 L 921.660156 463.738281 L 956.546875 478.671875 L 1002.820312 478.671875 Z M 1005.445312 475.132812 L 1005.445312 476.796875 L 1000.273438 474.683594 L 953.960938 474.683594 L 920.171875 459.425781 L 884.820312 491.902344 L 884.769531 491.941406 L 822.738281 539.9375 L 786.3125 516.046875 L 736.203125 502.148438 L 679.496094 502.148438 L 649.144531 501.824219 L 587.988281 501.824219 L 546.878906 521.945312 L 509.625 503.1875 L 450.519531 488.242188 L 434.3125 488.242188 L 434.3125 486.707031 L 450.71875 486.707031 C 470.539062 491.714844 490.34375 496.753906 510.175781 501.738281 L 546.902344 520.230469 L 587.664062 500.289062 L 649.167969 500.289062 L 679.523438 500.613281 L 736.417969 500.613281 C 753.273438 505.300781 770.132812 509.972656 786.988281 514.644531 L 822.691406 538.0625 L 883.808594 490.765625 L 919.898438 457.613281 L 954.300781 473.148438 L 1000.585938 473.148438 Z M 1005.445312 470.671875 L 1005.445312 472.347656 L 998.011719 469.148438 L 951.710938 469.148438 L 918.386719 453.304688 L 883.007812 484.730469 L 882.984375 484.753906 L 822.039062 534.601562 L 785.890625 511.472656 L 736.816406 497.039062 L 680.921875 497.039062 L 650.757812 495.351562 L 590.25 495.351562 L 548.890625 517.558594 L 511.511719 499.402344 L 453.242188 483.867188 L 434.3125 483.867188 L 434.3125 482.332031 L 453.429688 482.332031 C 472.960938 487.542969 492.496094 492.753906 512.027344 497.9375 L 548.828125 515.820312 L 589.851562 493.804688 L 650.746094 493.804688 L 680.910156 495.488281 L 737.003906 495.488281 C 753.5 500.351562 769.996094 505.210938 786.5 510.046875 L 821.902344 532.703125 L 881.984375 483.554688 L 918.097656 451.480469 L 952.023438 467.609375 L 998.296875 467.609375 Z M 1005.445312 466.335938 L 1005.445312 468.023438 L 995.734375 463.625 L 949.4375 463.625 L 916.574219 447.191406 L 881.160156 477.558594 L 821.304688 529.253906 L 785.414062 506.875 L 737.390625 491.902344 L 682.296875 491.902344 L 652.304688 488.855469 L 592.460938 488.855469 L 550.851562 513.148438 L 513.351562 495.589844 L 455.941406 479.496094 L 434.3125 479.496094 L 434.3125 477.957031 L 456.15625 477.957031 C 475.398438 483.355469 494.644531 488.765625 513.886719 494.140625 L 550.777344 511.421875 L 592.0625 487.316406 L 652.355469 487.316406 L 682.347656 490.367188 L 737.628906 490.367188 C 753.773438 495.402344 769.917969 500.449219 786.078125 505.472656 L 821.179688 527.355469 C 852.878906 499.976562 884.558594 472.632812 916.359375 445.367188 L 949.800781 462.089844 L 996.074219 462.089844 Z M 1005.445312 462.101562 L 1005.445312 463.8125 L 993.460938 458.101562 L 947.164062 458.101562 L 914.761719 441.082031 L 879.335938 470.386719 L 820.589844 523.917969 L 784.976562 502.300781 L 737.992188 486.792969 L 683.683594 486.792969 L 653.882812 482.367188 L 594.710938 482.367188 L 552.851562 508.761719 L 515.210938 491.792969 L 458.667969 475.121094 L 434.3125 475.121094 L 434.3125 473.585938 L 458.867188 473.585938 C 477.824219 479.171875 496.78125 484.78125 515.761719 490.355469 L 552.726562 507.023438 L 594.273438 480.832031 L 653.980469 480.832031 L 683.785156 485.253906 L 738.242188 485.253906 C 754.023438 490.464844 769.820312 495.691406 785.613281 500.886719 L 820.414062 522.007812 L 878.359375 469.210938 L 914.585938 439.246094 L 947.550781 456.566406 L 993.824219 456.566406 Z M 1005.445312 457.988281 L 1005.445312 459.714844 L 991.199219 452.566406 L 944.890625 452.566406 L 912.949219 434.960938 L 877.511719 463.199219 L 819.867188 518.570312 L 784.503906 497.703125 L 738.578125 481.65625 L 685.058594 481.65625 L 655.441406 475.871094 L 596.949219 475.871094 L 554.835938 504.351562 L 517.085938 487.980469 L 461.367188 470.734375 L 434.3125 470.734375 L 434.3125 469.199219 L 461.578125 469.199219 C 480.246094 474.984375 498.917969 480.769531 517.597656 486.53125 L 554.664062 502.601562 L 596.472656 474.320312 L 655.59375 474.320312 L 685.207031 480.105469 L 738.839844 480.105469 C 754.285156 485.503906 769.71875 490.902344 785.175781 496.289062 L 819.652344 516.632812 L 876.523438 462.011719 C 888.621094 452.378906 900.714844 442.730469 912.8125 433.097656 L 945.300781 451.003906 L 991.5625 451.003906 Z M 1005.445312 454.003906 L 1005.445312 455.738281 L 988.925781 447.03125 L 942.628906 447.03125 L 911.148438 428.824219 L 875.699219 456.003906 L 819.152344 513.210938 L 784.050781 493.101562 L 739.179688 476.519531 L 686.457031 476.519531 L 657.03125 469.375 L 599.171875 469.375 L 556.800781 499.9375 L 518.921875 484.167969 L 464.066406 466.347656 L 434.3125 466.347656 L 434.3125 464.8125 L 464.304688 464.8125 L 519.4375 482.71875 L 519.5 482.742188 L 556.613281 498.203125 L 598.6875 467.835938 L 657.191406 467.835938 L 686.621094 474.984375 L 739.441406 474.984375 C 754.523438 480.558594 769.605469 486.144531 784.703125 491.703125 L 818.878906 511.285156 L 874.675781 454.839844 C 886.796875 445.566406 898.902344 436.257812 911.011719 426.972656 L 943.015625 445.480469 L 989.273438 445.480469 Z M 1005.445312 450.140625 L 1005.445312 451.890625 L 986.664062 441.496094 L 940.367188 441.496094 L 909.351562 422.699219 L 873.886719 448.816406 L 818.441406 507.859375 L 783.613281 488.515625 L 739.777344 471.398438 L 687.859375 471.398438 L 658.617188 462.886719 L 601.433594 462.886719 L 558.8125 495.539062 L 520.824219 480.371094 L 466.777344 461.988281 L 434.3125 461.988281 L 434.3125 460.449219 L 467.015625 460.449219 L 521.296875 478.933594 L 558.546875 493.804688 L 600.898438 461.351562 L 658.804688 461.351562 L 688.046875 469.859375 L 740.054688 469.859375 C 754.785156 475.621094 769.519531 481.382812 784.253906 487.117188 L 818.128906 505.9375 L 872.863281 447.667969 C 884.996094 438.71875 897.128906 429.785156 909.261719 420.851562 L 940.777344 439.945312 L 987.039062 439.945312 Z M 1005.445312 446.417969 L 1005.445312 448.191406 L 984.390625 435.957031 L 938.089844 435.957031 L 907.539062 416.578125 L 872.0625 441.644531 L 817.71875 502.523438 L 783.140625 483.945312 L 740.367188 466.300781 L 689.230469 466.300781 L 660.167969 456.414062 L 603.648438 456.414062 L 560.773438 491.152344 L 522.648438 476.582031 L 469.476562 457.613281 L 434.3125 457.613281 L 434.3125 456.078125 L 469.738281 456.078125 C 500.402344 467.023438 530.132812 477.808594 560.496094 489.40625 L 603.109375 454.878906 L 660.417969 454.878906 L 689.480469 464.761719 L 740.667969 464.761719 C 755.050781 470.699219 769.433594 476.644531 783.828125 482.570312 L 817.390625 500.613281 L 871.0625 440.507812 C 883.222656 431.921875 895.367188 423.335938 907.511719 414.753906 L 938.554688 434.445312 L 984.8125 434.445312 Z M 1005.445312 442.84375 L 1005.445312 444.644531 L 982.113281 430.433594 L 935.828125 430.433594 L 905.738281 410.464844 L 870.25 434.472656 L 817.003906 497.175781 L 782.679688 479.34375 L 740.964844 461.175781 L 690.632812 461.175781 L 661.753906 449.929688 L 605.882812 449.929688 L 562.757812 486.753906 C 532.492188 475.695312 502.378906 464.511719 472.1875 453.242188 L 434.3125 453.242188 L 434.3125 451.703125 L 472.449219 451.703125 L 525.035156 471.347656 L 562.445312 485.003906 L 605.320312 448.378906 L 662.027344 448.378906 L 690.90625 459.625 L 741.277344 459.625 C 755.3125 465.738281 769.355469 471.835938 783.390625 477.96875 L 816.628906 495.238281 L 869.226562 433.296875 C 881.382812 425.0625 893.566406 416.828125 905.738281 408.605469 L 936.304688 428.886719 L 982.566406 428.886719 Z M 1005.445312 439.433594 L 1005.445312 441.257812 L 979.851562 424.914062 L 933.566406 424.914062 L 903.941406 404.34375 L 868.449219 427.285156 L 816.292969 491.839844 L 782.265625 474.785156 L 741.566406 456.066406 L 692.019531 456.066406 L 663.328125 443.457031 L 608.121094 443.457031 L 564.746094 482.367188 C 551.976562 477.921875 539.167969 473.285156 526.359375 469 L 474.886719 448.878906 L 434.3125 448.878906 L 434.3125 447.34375 L 475.175781 447.34375 L 526.921875 467.574219 L 564.398438 480.632812 L 607.53125 441.917969 L 663.640625 441.917969 L 692.332031 454.527344 L 741.890625 454.527344 L 782.902344 473.398438 L 782.929688 473.410156 L 815.867188 489.917969 L 867.390625 426.148438 C 879.574219 418.265625 891.769531 410.390625 903.964844 402.507812 L 934.042969 423.386719 L 980.304688 423.386719 Z M 1005.445312 436.171875 L 1005.445312 437.984375 L 1005.394531 437.984375 L 977.578125 419.375 L 931.292969 419.375 L 902.128906 398.21875 L 866.625 420.101562 L 815.578125 486.480469 L 781.804688 470.183594 L 742.164062 450.929688 L 693.417969 450.929688 L 664.914062 436.957031 L 610.371094 436.957031 L 566.746094 477.957031 L 528.269531 465.199219 L 528.21875 465.1875 L 477.613281 444.492188 L 434.3125 444.492188 L 434.3125 442.957031 L 477.886719 442.957031 L 528.757812 463.75 L 566.347656 476.207031 L 609.746094 435.410156 L 665.238281 435.410156 L 693.742188 449.378906 L 742.492188 449.378906 L 782.453125 468.796875 L 815.105469 484.554688 L 865.5625 418.953125 C 877.773438 411.417969 889.980469 403.894531 902.191406 396.371094 L 931.78125 417.839844 L 978.027344 417.839844 Z M 1005.445312 431.433594 L 1005.445312 432.972656 L 1002.609375 432.972656 L 975.304688 413.851562 L 929.019531 413.851562 L 900.304688 392.097656 L 864.789062 412.929688 L 814.84375 481.132812 L 781.351562 465.613281 L 742.753906 445.816406 L 694.792969 445.816406 L 666.476562 430.472656 L 612.59375 430.472656 L 568.71875 473.558594 C 555.847656 469.511719 542.964844 465.472656 530.105469 461.402344 L 480.296875 440.121094 L 434.3125 440.121094 L 434.3125 438.582031 L 480.609375 438.582031 L 530.621094 459.949219 L 568.296875 471.824219 L 611.957031 428.9375 L 666.851562 428.9375 L 695.167969 444.28125 L 743.089844 444.28125 L 781.976562 464.226562 L 814.332031 479.21875 L 863.726562 411.777344 C 875.949219 404.605469 888.183594 397.433594 900.414062 390.261719 L 929.53125 412.316406 L 975.78125 412.316406 L 1003.082031 431.433594 Z M 1005.445312 426.410156 L 1005.445312 427.949219 L 999.820312 427.949219 L 973.03125 408.304688 L 926.757812 408.304688 L 898.503906 385.949219 L 862.964844 405.730469 L 814.117188 475.757812 C 803.035156 470.835938 791.9375 465.910156 780.851562 460.976562 L 743.328125 440.65625 L 696.179688 440.65625 L 668.039062 423.949219 L 614.804688 423.949219 L 570.683594 469.125 C 557.773438 465.273438 544.851562 461.4375 531.945312 457.5625 L 482.996094 435.707031 L 434.3125 435.707031 L 434.3125 434.171875 L 483.320312 434.171875 L 532.46875 456.113281 L 570.230469 467.386719 L 614.167969 422.414062 L 668.464844 422.414062 L 696.59375 439.121094 L 743.714844 439.121094 L 781.578125 459.625 L 813.582031 473.847656 L 861.902344 404.554688 C 874.148438 397.734375 886.394531 390.921875 898.640625 384.113281 L 927.269531 406.753906 L 973.519531 406.753906 L 1000.308594 426.398438 L 1005.445312 426.398438 Z M 1005.445312 421.402344 L 1005.445312 422.9375 L 997.035156 422.9375 L 970.757812 402.78125 L 924.484375 402.78125 L 896.691406 379.839844 L 861.152344 398.570312 L 813.40625 470.433594 C 802.410156 465.761719 791.398438 461.113281 780.417969 456.425781 L 743.925781 435.570312 L 697.578125 435.570312 L 669.625 417.503906 L 617.042969 417.503906 L 572.667969 464.761719 C 559.710938 461.113281 546.753906 457.476562 533.792969 453.804688 L 485.707031 431.371094 L 434.3125 431.371094 L 434.3125 429.835938 L 486.046875 429.835938 L 534.34375 452.351562 L 572.179688 463.023438 L 616.378906 415.964844 L 670.0625 415.964844 L 698.015625 434.035156 L 744.328125 434.035156 L 781.117188 455.066406 L 812.832031 468.523438 L 860.089844 397.394531 C 872.351562 390.921875 884.621094 384.476562 896.890625 378.015625 L 925.046875 401.257812 L 971.292969 401.257812 L 997.574219 421.414062 L 1005.445312 421.414062 Z M 434.3125 355.433594 L 532.28125 355.433594 L 565.996094 387.722656 L 605.394531 388.3125 L 607.070312 385.460938 L 567.207031 385.460938 L 534.355469 352.609375 L 434.3125 352.609375 L 434.3125 351.074219 L 535.003906 351.074219 L 567.859375 383.925781 L 607.359375 383.925781 L 656.28125 299.1875 L 698.941406 299.1875 L 723.558594 341.824219 L 755.386719 341.824219 L 773.054688 372.441406 L 799.234375 372.441406 L 827.226562 267.949219 L 865.039062 267.949219 L 884.519531 301.699219 L 930.742188 301.699219 L 947.75 331.167969 L 993.222656 331.167969 L 993.222656 332.703125 L 948.414062 332.703125 L 950.511719 336.175781 L 996.011719 336.175781 L 996.011719 337.714844 L 951.085938 337.714844 L 953.285156 341.1875 L 998.796875 341.1875 L 998.796875 342.726562 L 953.738281 342.726562 L 956.046875 346.199219 L 1001.582031 346.199219 L 1001.582031 347.738281 L 956.398438 347.738281 L 958.808594 351.210938 L 1004.359375 351.210938 L 1004.359375 352.746094 L 959.046875 352.746094 L 961.570312 356.222656 L 1005.445312 356.222656 L 1005.445312 357.757812 L 961.710938 357.757812 L 964.359375 361.230469 L 1005.445312 361.230469 L 1005.445312 362.769531 L 964.34375 362.769531 L 967.121094 366.242188 L 1005.445312 366.242188 L 1005.445312 367.78125 L 966.980469 367.78125 L 969.882812 371.253906 L 1005.445312 371.253906 L 1005.445312 372.792969 L 969.617188 372.792969 L 972.644531 376.265625 L 1005.445312 376.265625 L 1005.445312 377.800781 L 972.253906 377.800781 L 975.417969 381.277344 L 1005.445312 381.277344 L 1005.445312 382.8125 L 974.878906 382.8125 L 978.191406 386.285156 L 1005.445312 386.285156 L 1005.445312 387.824219 L 977.527344 387.824219 L 954.859375 364.042969 L 908.601562 364.042969 L 884.035156 336.914062 L 848.417969 348.3125 L 808.371094 432.921875 C 797.984375 430.046875 787.613281 427.175781 777.230469 424.3125 L 748.050781 399.683594 L 707.3125 399.683594 L 680.660156 372.054688 L 632.664062 372.054688 L 604.882812 409.28125 L 629.675781 377.003906 L 679.710938 377.003906 L 706.550781 403.269531 L 748 403.269531 L 778.417969 427.511719 L 808.292969 436.445312 L 849.144531 354.257812 C 861.527344 349.9375 873.898438 345.613281 886.28125 341.289062 L 911.539062 368.054688 L 957.773438 368.054688 L 980.953125 391.308594 L 1005.445312 391.308594 L 1005.445312 392.847656 L 980.316406 392.847656 L 957.121094 369.59375 L 910.863281 369.59375 L 885.832031 343.0625 L 850.230469 355.496094 L 809.082031 438.28125 L 777.679688 428.898438 L 747.453125 404.804688 L 705.914062 404.804688 L 679.074219 378.539062 L 630.414062 378.539062 L 599.398438 418.9375 L 627.453125 383.488281 L 678.097656 383.488281 L 705.128906 408.378906 L 747.390625 408.378906 L 778.855469 432.121094 L 809.03125 441.808594 L 850.957031 361.46875 C 863.316406 356.785156 875.671875 352.109375 888.03125 347.425781 L 913.773438 373.601562 L 960.007812 373.601562 L 983.714844 396.347656 L 1005.445312 396.347656 L 1005.445312 397.882812 L 983.101562 397.882812 L 959.398438 375.140625 L 913.136719 375.140625 L 887.644531 349.210938 L 852.042969 362.695312 L 809.792969 443.667969 C 799.234375 440.28125 788.6875 436.894531 778.128906 433.507812 L 746.863281 409.953125 L 704.515625 409.953125 L 677.484375 385.0625 L 628.1875 385.0625 L 594.074219 428.171875 L 625.238281 390 C 642.320312 390 659.402344 390 676.484375 390 L 703.691406 413.527344 L 746.75 413.527344 L 779.292969 436.695312 L 809.78125 447.128906 L 852.769531 368.628906 C 865.101562 363.582031 877.449219 358.546875 889.792969 353.523438 L 916.011719 379.113281 L 962.246094 379.113281 L 986.464844 401.332031 L 1005.445312 401.332031 L 1005.445312 402.867188 L 985.890625 402.867188 L 961.671875 380.652344 L 915.398438 380.652344 L 889.445312 355.320312 L 853.855469 369.855469 L 810.507812 449.003906 C 799.859375 445.367188 789.226562 441.707031 778.578125 438.070312 L 746.265625 415.050781 L 703.117188 415.050781 L 675.910156 391.523438 L 625.953125 391.523438 L 588.875 436.933594 L 623.003906 396.472656 L 674.875 396.472656 L 702.265625 418.640625 L 746.140625 418.640625 L 779.742188 441.28125 L 810.53125 452.476562 L 854.59375 375.828125 C 866.914062 370.429688 879.234375 365.03125 891.554688 359.644531 L 918.261719 384.648438 L 964.507812 384.648438 L 989.238281 406.355469 L 1005.445312 406.355469 L 1005.445312 407.890625 L 988.675781 407.890625 L 963.945312 386.1875 L 917.671875 386.1875 L 891.257812 361.457031 L 855.679688 377.039062 L 811.230469 454.367188 C 800.496094 450.464844 789.761719 446.566406 779.042969 442.667969 L 745.6875 420.1875 L 701.742188 420.1875 L 674.347656 398.019531 L 623.742188 398.019531 L 583.703125 445.492188 L 620.816406 402.957031 L 673.289062 402.957031 L 700.867188 423.761719 L 745.550781 423.761719 L 780.214844 445.867188 L 811.320312 457.8125 L 856.441406 383.011719 C 868.738281 377.253906 881.046875 371.503906 893.355469 365.753906 L 920.535156 390.171875 L 966.78125 390.171875 L 992.023438 411.367188 L 1005.445312 411.367188 L 1005.445312 412.902344 L 991.460938 412.902344 L 966.21875 391.710938 L 919.945312 391.710938 L 893.082031 367.582031 L 857.515625 384.199219 L 811.96875 459.714844 C 801.148438 455.550781 790.324219 451.417969 779.515625 447.242188 L 745.113281 425.3125 L 700.355469 425.3125 L 672.773438 404.507812 L 621.515625 404.507812 L 578.503906 453.804688 L 618.617188 409.453125 L 671.6875 409.453125 L 699.453125 428.886719 L 744.953125 428.886719 L 780.679688 450.453125 L 812.09375 463.164062 L 858.277344 390.199219 C 870.5625 384.085938 882.847656 377.988281 895.128906 371.878906 L 922.796875 395.707031 L 969.042969 395.707031 L 994.796875 416.378906 L 1005.445312 416.378906 L 1005.445312 417.914062 L 994.25 417.914062 L 968.496094 397.246094 L 922.222656 397.246094 L 894.890625 373.703125 L 859.339844 391.371094 L 812.695312 465.0625 C 801.785156 460.652344 790.875 456.238281 779.980469 451.828125 L 744.527344 430.421875 L 698.980469 430.421875 L 671.214844 410.992188 L 619.292969 410.992188 L 574.667969 460.339844 C 561.671875 456.890625 548.664062 453.441406 535.679688 449.980469 L 488.433594 426.972656 L 434.3125 426.972656 L 434.3125 425.4375 L 488.769531 425.4375 L 536.21875 448.542969 L 574.15625 458.613281 L 576.59375 455.925781 C 563.570312 452.691406 550.550781 449.453125 537.542969 446.191406 L 491.144531 422.613281 L 434.3125 422.613281 L 434.3125 421.074219 L 491.480469 421.074219 L 538.066406 444.757812 L 576.09375 454.226562 L 578.46875 451.515625 C 565.433594 448.480469 552.414062 445.441406 539.390625 442.40625 L 493.832031 418.238281 L 434.3125 418.238281 L 434.3125 416.703125 L 494.195312 416.703125 L 539.917969 440.957031 L 578.042969 449.839844 L 580.355469 447.105469 C 567.320312 444.28125 554.289062 441.445312 541.253906 438.621094 L 496.542969 413.878906 L 434.3125 413.878906 L 434.3125 412.339844 L 496.917969 412.339844 L 541.777344 437.171875 L 580.003906 445.457031 L 582.265625 442.695312 C 569.21875 440.070312 556.160156 437.445312 543.117188 434.832031 L 499.253906 409.515625 L 434.3125 409.515625 L 434.3125 407.980469 L 499.628906 407.980469 L 543.640625 433.382812 L 581.941406 441.082031 L 584.140625 438.296875 C 571.070312 435.871094 558.011719 433.460938 544.941406 431.046875 L 501.929688 405.15625 L 434.3125 405.15625 L 434.3125 403.617188 L 502.355469 403.617188 L 545.503906 429.597656 L 583.890625 436.695312 L 586.039062 433.898438 C 572.957031 431.683594 559.886719 429.472656 546.800781 427.261719 L 504.628906 400.78125 L 434.3125 400.78125 L 434.3125 399.246094 L 505.078125 399.246094 L 547.363281 425.800781 L 585.839844 432.296875 L 587.9375 429.484375 C 574.84375 427.472656 561.746094 425.460938 548.664062 423.460938 L 507.339844 396.410156 L 434.3125 396.410156 L 434.3125 394.871094 L 507.800781 394.871094 L 549.226562 422 L 587.800781 427.910156 L 589.851562 425.085938 L 550.511719 419.675781 L 510.039062 392.046875 L 434.3125 392.046875 L 434.3125 390.511719 L 510.511719 390.511719 L 551.089844 418.214844 L 589.75 423.539062 L 591.75 420.699219 C 578.628906 419.101562 565.496094 417.5 552.375 415.902344 L 512.75 387.6875 L 434.3125 387.6875 L 434.3125 386.148438 L 513.226562 386.148438 L 552.9375 414.414062 L 591.699219 419.140625 L 593.664062 416.289062 C 580.515625 414.890625 567.371094 413.492188 554.226562 412.089844 L 515.4375 383.300781 L 434.3125 383.300781 L 434.3125 381.761719 L 515.949219 381.761719 L 554.8125 410.605469 L 593.664062 414.742188 L 595.574219 411.890625 C 582.414062 410.691406 569.246094 409.492188 556.085938 408.304688 L 518.148438 378.9375 L 434.3125 378.9375 L 434.3125 377.402344 L 518.671875 377.402344 L 556.675781 406.816406 L 595.613281 410.355469 L 597.484375 407.492188 C 584.304688 406.492188 571.121094 405.492188 557.949219 404.507812 L 520.847656 374.476562 L 434.3125 374.476562 L 434.3125 372.941406 L 521.398438 372.941406 L 558.535156 402.929688 L 597.574219 405.878906 L 599.410156 403.019531 C 586.214844 402.21875 573.007812 401.417969 559.808594 400.632812 L 523.570312 370.105469 L 434.3125 370.105469 L 434.3125 368.566406 L 524.109375 368.566406 L 560.398438 399.132812 L 599.523438 401.496094 L 601.324219 398.632812 C 588.101562 398.03125 574.878906 397.433594 561.648438 396.847656 L 526.257812 365.742188 L 434.3125 365.742188 L 434.3125 364.207031 L 526.832031 364.207031 L 562.257812 395.347656 L 601.472656 397.121094 L 603.222656 394.257812 C 589.976562 393.859375 576.742188 393.460938 563.496094 393.070312 L 528.957031 361.382812 L 434.3125 361.382812 L 434.3125 359.84375 L 529.558594 359.84375 L 564.132812 391.558594 L 603.445312 392.734375 L 605.171875 389.875 C 591.914062 389.671875 578.640625 389.472656 565.382812 389.273438 L 531.683594 357.007812 L 434.335938 357.007812 L 434.335938 355.433594 Z M 434.3125 355.433594 " fill-opacity="1" fill-rule="nonzero"/></g></svg>